<?xml version="1.0" encoding="utf-8"?>
<!-- Generator: Adobe Illustrator 26.2.1, SVG Export Plug-In . SVG Version: 6.00 Build 0)  -->
<svg version="1.1" id="Layer_1" xmlns="http://www.w3.org/2000/svg" xmlns:xlink="http://www.w3.org/1999/xlink" x="0px" y="0px"
	 viewBox="0 0 51.6 11.7" style="enable-background:new 0 0 51.6 11.7;" xml:space="preserve">
<style type="text/css">
	.st0{fill:#FFFFFF;}
</style>
<path class="st0" d="M0,4.8c0-2.7,1.7-4.7,4.3-4.7c1,0,1.9,0.3,2.5,0.7C7.5,1.4,7.9,2.2,8,3.1H6.4c-0.2-1-0.9-1.6-2.1-1.6
	c-1.7,0-2.6,1.4-2.6,3.3c0,1.9,1,3.2,2.6,3.2c1.3,0,2.1-0.9,2.2-2h1.7c0,0.9-0.5,1.8-1.1,2.4c-0.6,0.6-1.6,1-2.8,1
	C1.7,9.4,0,7.4,0,4.8z"/>
<path class="st0" d="M8.6,6c0-1.9,1.3-3.4,3.3-3.4s3.2,1.5,3.2,3.4c0,1.9-1.3,3.4-3.2,3.4S8.6,7.9,8.6,6z M13.6,6
	c0-1.3-0.6-2.3-1.7-2.3c-1.1,0-1.7,1-1.7,2.3c0,1.3,0.6,2.2,1.7,2.2C13,8.2,13.6,7.3,13.6,6z"/>
<path class="st0" d="M15.7,2.8h1.5v0.9h0c0.5-0.7,1.1-1.1,2-1.1C20.9,2.6,22,4,22,6c0,2.1-1.1,3.4-2.8,3.4c-0.9,0-1.5-0.4-1.9-1h0
	c0,0.2,0,0.6,0,1.2v1.7h-1.5V2.8z M20.5,6c0-1.3-0.5-2.2-1.6-2.2c-1.2,0-1.7,1-1.7,2.2s0.5,2.1,1.7,2.1C19.9,8.2,20.5,7.3,20.5,6z"
	/>
<path class="st0" d="M22.5,6c0-1.9,1.3-3.4,3.2-3.4c0.9,0,1.7,0.3,2.2,0.9c0.6,0.7,0.9,1.7,0.9,2.9H24c0.1,1.1,0.7,1.8,1.8,1.8
	c0.7,0,1.2-0.3,1.4-0.8h1.5c-0.3,1.2-1.3,2-2.9,2C23.7,9.4,22.5,7.9,22.5,6z M24,5.4h3.2c-0.1-1.1-0.6-1.7-1.5-1.7
	C24.7,3.7,24.2,4.4,24,5.4z"/>
<path class="st0" d="M29.7,0.3h1.5v8.9h-1.5V0.3z"/>
<path class="st0" d="M36.3,8.4L36.3,8.4c-0.4,0.6-1,1-2,1c-1.2,0-2.2-0.6-2.2-1.9c0-1.5,1.1-1.8,2.6-2c1.1-0.1,1.6-0.3,1.6-0.9
	c0-0.6-0.4-0.9-1.2-0.9c-0.9,0-1.3,0.4-1.3,1h-1.4c0-1.1,0.9-2.1,2.7-2.1c0.7,0,1.3,0.1,1.7,0.4c0.6,0.4,0.9,1,0.9,1.8v3.4
	c0,0.5,0.1,0.8,0.2,0.9v0.1h-1.5C36.4,9,36.3,8.8,36.3,8.4z M36.3,6.9V5.9c-0.3,0.2-0.8,0.3-1.2,0.4c-0.9,0.2-1.5,0.4-1.5,1.1
	c0,0.7,0.5,0.9,1.1,0.9C35.7,8.3,36.3,7.6,36.3,6.9z"/>
<path class="st0" d="M40.3,3.7L40.3,3.7c0.5-0.7,1.1-1.1,2-1.1c1.4,0,2.2,0.9,2.2,2.2v4.3h-1.5V5.1c0-0.8-0.4-1.2-1.2-1.2
	c-0.9,0-1.5,0.6-1.5,1.6v3.8h-1.5V2.8h1.5V3.7z"/>
<path class="st0" d="M45.2,6c0-2,1.2-3.4,2.8-3.4c0.9,0,1.5,0.4,2,1.1h0c0-0.3,0-0.9,0-1.3V0.3h1.5v8.9H50V8.3h0
	c-0.4,0.7-1.1,1.1-2,1.1C46.3,9.4,45.2,8.1,45.2,6z M50,6c0-1.3-0.6-2.2-1.7-2.2c-1,0-1.5,0.9-1.5,2.2c0,1.3,0.5,2.2,1.5,2.2
	C49.4,8.1,50,7.3,50,6z"/>
</svg>
