<?xml version="1.0" encoding="UTF-8"?>
<svg width="1200pt" height="1200pt" version="1.1" viewBox="0 0 1200 1200" xmlns="http://www.w3.org/2000/svg">
 <path d="m1146.2 391.06c-0.011719-10.496-4.1875-20.555-11.605-27.977-7.418-7.418-17.477-11.594-27.969-11.613h-275.96v300.81c-0.023438 16.383-6.543 32.09-18.125 43.676-11.582 11.582-27.289 18.105-43.672 18.133h-298.71l-78.594 45.41v98.754c0.007813 10.5 4.1797 20.566 11.602 27.992 7.4219 7.4258 17.488 11.605 27.988 11.621h301.64c1.9453 0.003906 3.8594 0.51562 5.5469 1.4883l254.62 147.02v-137.39c-0.003907-2.9453 1.1641-5.7734 3.25-7.8594 2.082-2.0859 4.9062-3.2539 7.8555-3.2539h102.55c10.496-0.019532 20.559-4.1992 27.977-11.625 7.4219-7.4258 11.59-17.492 11.598-27.988zm-939.21 311.92c0-6.1328-4.9727-11.102-11.105-11.102h-102.53c-10.496-0.015624-20.555-4.1953-27.977-11.617-7.4219-7.4258-11.598-17.488-11.609-27.984v-467.19c0.011719-10.496 4.1875-20.559 11.609-27.98 7.4219-7.4258 17.48-11.602 27.977-11.617h675.51c10.488 0.023437 20.539 4.207 27.949 11.629 7.4141 7.4219 11.578 17.48 11.59 27.969v467.19c-0.011719 10.5-4.1836 20.562-11.605 27.988-7.4219 7.4219-17.484 11.598-27.984 11.613h-301.64c-1.9453 0.003907-3.8594 0.51953-5.5469 1.4883l-254.64 147.01zm961.41-311.92v467.19c0 16.395-6.5078 32.121-18.09 43.727-11.582 11.602-27.297 18.137-43.691 18.168h-91.441v145.45c0 3.9648-2.1211 7.6289-5.5586 9.6094-3.4336 1.9922-7.668 1.9922-11.102 0l-268.71-155.12h-298.71c-16.398-0.027344-32.117-6.5625-43.703-18.164-11.586-11.605-18.094-27.336-18.094-43.73v-85.895l-167.85 96.934c-3.4336 1.9766-7.6641 1.9766-11.098-0.007813-3.4375-1.9805-5.5547-5.6406-5.5625-9.6055v-145.53h-91.441c-16.383-0.027344-32.086-6.5508-43.668-18.133-11.582-11.586-18.102-27.293-18.125-43.676v-467.19c0.027344-16.379 6.5469-32.082 18.129-43.664s27.285-18.102 43.664-18.129h675.51c16.383 0.027344 32.082 6.5469 43.668 18.129 11.582 11.582 18.102 27.285 18.129 43.664v144.18h275.96c16.379 0.03125 32.078 6.5508 43.656 18.133 11.582 11.586 18.098 27.285 18.125 43.664zm-466.52 154.3c-0.007813 6.1289-4.9727 11.098-11.102 11.105h-519.32c-6.1328 0-11.102-4.9727-11.102-11.105 0-6.1328 4.9688-11.102 11.102-11.102h519.32c2.9453-0.003906 5.7695 1.1641 7.8555 3.2461 2.082 2.0859 3.25 4.9102 3.2461 7.8555zm-530.43-115.58c-6.1328 0-11.102-4.9688-11.102-11.102s4.9688-11.105 11.102-11.105h431.65c6.1328 0 11.102 4.9727 11.102 11.105s-4.9688 11.102-11.102 11.102zm-11.051-137.77c0.007813 6.1367 4.9805 11.105 11.113 11.105h308.46c6.1328 0 11.102-4.9727 11.102-11.105s-4.9688-11.102-11.102-11.102h-308.53c-6.1094 0.035157-11.043 4.9922-11.051 11.102z" fill-rule="evenodd"/>
</svg>
