<?xml version="1.0" encoding="UTF-8" standalone="no"?>
<!DOCTYPE svg PUBLIC "-//W3C//DTD SVG 1.1//EN" "http://www.w3.org/Graphics/SVG/1.1/DTD/svg11.dtd">
<svg width="100%" height="100%" viewBox="0 0 1200 1200" version="1.1" xmlns="http://www.w3.org/2000/svg" xmlns:xlink="http://www.w3.org/1999/xlink" xml:space="preserve" xmlns:serif="http://www.serif.com/" style="fill-rule:evenodd;clip-rule:evenodd;stroke-linejoin:round;stroke-miterlimit:2;">
    <g id="Plan-de-travail1" serif:id="Plan de travail1" transform="matrix(1.31881,0,0,1.64538,-226.326,-399.238)">
        <rect x="171.613" y="242.641" width="909.908" height="729.313" style="fill:none;"/>
        <g transform="matrix(1.46452,0,0,1.09337,-251.752,-57.0336)">
            <path d="M531.87,365.77C524.018,365.77 517.491,370.102 511.808,376.633C506.124,383.164 501.66,392.543 501.66,403.555L501.66,448.895L335.49,448.895C318.697,448.895 305.279,462.223 305.279,479.122C304.67,592.942 305.279,705.932 305.279,819.162C305.279,836.06 318.697,849.389 335.49,849.389C416.256,849.463 496.47,849.389 577.19,849.389C581.182,849.463 584.85,845.827 584.85,841.834C584.85,837.842 581.178,834.221 577.19,834.276L448.31,834.276C444.443,765.335 389.306,710.096 320.38,706.286L320.38,479.116C320.38,469.327 325.778,464.003 335.485,464.003C529.575,464.12 671.175,464.003 864.205,464.003C873.912,464.003 879.31,469.327 879.31,479.116L879.31,706.286C810.38,710.09 755.24,765.333 751.38,834.276L622.5,834.276C618.508,834.201 614.84,837.838 614.84,841.834C614.84,845.827 618.512,849.448 622.5,849.389C703.262,849.471 783.59,849.389 864.2,849.389C880.993,849.389 894.411,836.061 894.411,819.162C894.505,705.732 894.411,592.622 894.411,479.122C894.411,462.224 880.993,448.895 864.2,448.895L698.03,448.895L698.03,403.555C698.03,392.547 693.561,383.164 687.882,376.633C682.198,370.102 675.671,365.77 667.82,365.77L531.87,365.77ZM531.87,380.883L667.83,380.883C668.389,380.883 673.018,382.477 676.564,386.551C680.107,390.625 682.936,396.528 682.936,403.555L682.936,448.895L516.766,448.895L516.766,403.555C516.766,396.528 519.594,390.625 523.137,386.551C526.68,382.477 531.312,380.883 531.871,380.883L531.87,380.883ZM386.94,426.223C382.987,426.594 379.725,430.532 380.096,434.489C380.467,438.446 384.401,441.707 388.358,441.336L426.124,441.336C430.116,441.395 433.784,437.774 433.784,433.782C433.784,429.789 430.112,426.168 426.124,426.227L386.94,426.227L386.94,426.223ZM772.15,426.223C768.197,426.594 764.935,430.532 765.306,434.489C765.677,438.446 769.611,441.707 773.568,441.336L811.334,441.336C815.326,441.395 818.994,437.774 818.994,433.782C818.994,429.789 815.322,426.168 811.334,426.227L772.15,426.227L772.15,426.223ZM599.85,517.137C524.854,517.137 463.89,577.914 463.89,652.917C463.89,727.921 524.847,788.937 599.85,788.937C674.846,788.937 735.81,727.921 735.81,652.917C735.81,577.913 674.853,517.137 599.85,517.137ZM599.85,532.012C666.682,532.012 720.7,586.078 720.7,652.922C720.7,719.758 666.68,773.832 599.85,773.832C533.018,773.832 479,719.766 479,652.922C479,586.086 533.02,532.012 599.85,532.012ZM598.905,577.114C595.194,577.579 592.151,581.169 592.295,584.907L592.295,645.36L530.455,645.36C526.502,645.731 523.24,649.669 523.611,653.626C523.982,657.583 527.916,660.844 531.873,660.473L592.299,660.473L592.299,720.926C592.241,724.918 595.862,728.59 599.854,728.59C603.846,728.59 607.463,724.918 607.409,720.926L607.409,660.473L667.835,660.473C671.827,660.548 675.495,656.911 675.495,652.919C675.495,648.926 671.823,645.305 667.835,645.364L607.409,645.364L607.409,584.911C607.58,580.54 603.248,576.567 598.912,577.118L598.905,577.114ZM320.385,721.404C381.108,725.185 429.425,773.529 433.205,834.284L335.486,834.284C325.779,834.284 320.381,828.96 320.381,819.171L320.385,721.404ZM879.315,721.404L879.315,819.166C879.315,828.955 873.916,834.279 864.21,834.279L766.491,834.279C770.272,773.529 818.593,725.189 879.311,721.399L879.315,721.404Z" style="fill-rule:nonzero;"/>
        </g>
    </g>
</svg>
