<?xml version="1.0" encoding="UTF-8"?>
<svg width="1200pt" height="1200pt" version="1.1" viewBox="0 0 1200 1200" xmlns="http://www.w3.org/2000/svg">
 <path d="m626.23 9.5195c0.19531 0.003907 0.39062 0.015625 0.58203 0.035157 30.547 1.8945 58.707 8.6016 84.402 19.242 48.168 19.949 87.527 53.68 117.68 95.387 29.992 41.488 50.859 90.832 62.199 142.29 17.293 78.484 12.488 162.16-15.855 230.59-15.133 36.531-36.25 73.277-61.883 110.3-24.254 35.031-52.473 70.234-83.43 105.7 46.418 43.004 95.027 85.789 142.09 127.21l3.3594 2.957c13.129 11.555 26.57 23.391 46.645 41.184 15.07 13.355 29.984 26.664 44.762 40.027 13.906 12.574 26.98 24.543 38.926 35.703 12.438 11.617 24.449 23.078 35.949 34.371 8.4688 8.3164 13.398 15.457 14.469 23.883 1.0742 8.4297-1.8984 16.93-9.2539 27.762-12.492 18.398-35.703 45.426-66.879 70.914-22.949 18.762-50.359 36.82-81.234 50.215-7.6602 3.3242-15.945 4.207-23.695 2.8477-7.8594-1.375-15.238-5.0469-20.961-10.809-29.031-29.23-61.395-60.914-95.418-94.223-57.273-56.07-119.23-116.73-178.18-178.3-45.039 59.297-82.586 115.38-117.08 166.89-29.871 44.617-57.469 85.836-85.586 122.73-4.832 6.3398-11.59 10.816-19.172 13.098-7.4023 2.2266-15.645 2.3438-23.652 0.023437l-165.27-47.875c-5.5781-1.6172-10.418-4.1602-14.402-7.5352-4.1094-3.4805-7.2852-7.8047-9.4062-12.859-2.1484-5.1289-2.9258-10.344-2.3438-15.496 0.57812-5.1211 2.5-10.078 5.7422-14.719 78.574-112.43 210.39-240.01 309.53-335.96l1.668-1.6133c-47.688-57.48-87.777-113.43-113.82-164.78-33.426-65.906-53.961-132.55-61.926-196.82-8.1484-65.73-3.1562-129.04 14.629-186.63 14.781-47.867 45.18-87.23 84.051-117.9 43.82-34.574 98.371-58.066 153.3-70.168 31.77-7 61.605-9.3281 89.461-7.6602zm213.97 887.93c-2.0703-1.8242-2.2734-4.9805-0.44922-7.0508 1.8242-2.0703 4.9805-2.2734 7.0508-0.44922 14.113 12.422 28.34 24.949 46.645 41.172 15.145 13.422 30.074 26.742 44.738 40.004 2.0391 1.8438 2.1953 4.9922 0.35156 7.0312s-4.9922 2.1953-7.0312 0.35156c-14.297-12.93-29.266-26.281-44.66-39.926-12.238-10.844-29.199-25.777-46.645-41.133zm-215.38-872c-35.898-0.0625-65.559 5.5742-89.805 15.691 25.371-2.6641 53.496 1.3438 82.293 10.613 33.012 10.629 67 28.242 98.641 50.629 31.613 22.367 60.891 49.488 84.516 79.145 31.84 39.969 53.57 84.637 57.367 128.82 7.5312-32.68 7.5156-66.418-2.2383-101.55-0.32812-1.1875-0.37109-2.3828-0.16797-3.5195-10.465-25.66-23.641-49.902-39.465-71.793-28.48-39.391-65.547-71.203-110.8-89.949-24.375-10.094-51.172-16.41-80.336-18.098zm-153 66.207c-4.8438 7.0078-9.0742 14.445-12.738 22.25-13.617 29.027-19.469 63.211-19.656 99.293-0.41406 79.148 26.348 167 58.457 230.3 25.93 51.121 69.824 106.18 123 162.52 71.586-62.34 140.5-124.54 186.39-189.53 6.2422-8.8398 12.059-17.738 17.402-26.695 36.441-62.348 12.848-136.12-36.707-198.33-22.746-28.555-50.875-54.625-81.203-76.082-30.301-21.441-62.805-38.293-94.328-48.441-57.09-18.379-110.66-14.547-140.62 24.715zm-27.176 15.5c4.0352-8.6016 8.6953-16.797 14.023-24.527 0.125-0.19922 0.25781-0.39453 0.40234-0.58594 9.5664-13.742 21.266-25.98 35.363-36.324-36.609 12.695-71.488 30.773-101.09 54.125-36.453 28.762-64.922 65.535-78.676 110.09-17.102 55.379-21.883 116.45-14.004 180 7.75 62.512 27.742 127.38 60.301 191.57 72.414 142.78 257.19 323.67 408.92 472.21 34.031 33.316 66.402 65.008 95.543 94.348 3.3164 3.3398 7.6836 5.4844 12.398 6.3086 4.8203 0.84375 9.9414 0.3125 14.633-1.7227 29.223-12.676 55.387-29.945 77.422-47.965 29.965-24.496 52.039-50.137 63.816-67.477 5.0469-7.4297 7.1641-12.613 6.6289-16.824-0.53516-4.2148-3.918-8.6875-9.8438-14.508-11.199-10.996-23.125-22.367-35.637-34.059-13.004-12.148-25.891-23.961-38.738-35.578-14.188-12.828-29.164-26.188-44.637-39.902-10.465-9.2734-28.215-24.898-46.645-41.121l-3.3594-2.957c-49.02-43.141-99.711-87.754-147.93-132.63l-0.007812-0.007812c-0.11719-0.10156-0.22656-0.20703-0.33594-0.3125-98.738-91.902-187.1-184.9-229.55-268.62-33.035-65.137-60.57-155.71-60.145-237.55 0.19922-38.277 6.4961-74.73 21.156-105.98zm187.29 510.45c26.98 28.02 56.094 56.309 86.293 84.547 30.578-35.039 58.332-69.664 82.012-103.86 25.027-36.148 45.598-71.906 60.258-107.3 25.402-61.328 30.961-135.72 17.828-206.99-4.5859 49.512-26 96.379-57.988 141.68-46.867 66.367-116.3 129.12-188.41 191.93zm-62.562 257.47c-34.605-36.461-67.988-73.164-98.559-109.35l-0.8125 0.78516c-98.707 95.539-229.96 222.58-307.59 333.65-1.668 2.3867-2.6484 4.8594-2.9297 7.3438-0.27734 2.4531 0.125 5.0195 1.2188 7.6211 1.1211 2.6758 2.8008 4.9609 4.9688 6.7969 2.2969 1.9453 5.1641 3.4336 8.5273 4.4102l165.27 47.875c4.9531 1.4336 10.059 1.3594 14.652-0.023438 4.418-1.3281 8.3125-3.8828 11.047-7.4727 27.965-36.695 55.367-77.621 85.023-121.92 35.082-52.398 73.301-109.48 119.18-169.72z"/>
</svg>
