<?xml version="1.0" encoding="UTF-8"?>
<svg width="1200pt" height="1200pt" version="1.1" viewBox="0 0 1200 1200" xmlns="http://www.w3.org/2000/svg">
 <g>
  <path d="m473.23 261c53.551 0 97.102-43.574 97.102-97.102 0-1.4258-0.35156-2.7266-0.42578-4.125 110.9-7.6484 219.32 25.801 306.38 95.648 190.02 152.35 220.62 430.85 68.273 620.82-4.3516 5.4258-3.4766 13.273 1.8984 17.574 2.3242 1.8516 5.0742 2.7734 7.8242 2.7734 3.6484 0 7.3008-1.6016 9.8008-4.6992 160.95-200.73 128.6-495.02-72.148-656-92.727-74.375-208.27-109.75-326.5-100.93-12.398-39.398-48.801-68.227-92.227-68.227-53.551 0-97.125 43.574-97.125 97.125 0.027343 53.559 43.602 97.133 97.152 97.133zm0-169.23c39.75 0 72.102 32.352 72.102 72.125 0 39.75-32.352 72.102-72.102 72.102-39.773 0-72.125-32.352-72.125-72.102 0-39.797 32.348-72.125 72.125-72.125z"/>
  <path d="m308.07 964.07c83.5 66.949 185.5 102.62 291.27 102.62 11.676 0 23.449-0.82422 35.227-1.6992 12.398 39.398 48.824 68.227 92.199 68.227 53.574 0 97.125-43.551 97.125-97.125 0-53.574-43.574-97.074-97.125-97.074-53.523 0-97.125 43.551-97.125 97.074 0 1.4258 0.375 2.7266 0.44922 4.1484-110.82 7.625-219.3-25.824-306.38-95.648-190-152.35-220.62-430.88-68.273-620.88 4.3242-5.3984 3.4492-13.25-1.9258-17.574-5.375-4.3008-13.25-3.4258-17.574 1.9258-160.97 200.72-128.62 495 72.125 656zm418.75-0.097657c39.75 0 72.102 32.375 72.102 72.125s-32.352 72.125-72.102 72.125c-39.801 0-72.125-32.375-72.125-72.125s32.324-72.125 72.125-72.125z"/>
  <path d="m600.02 310.95c-6.875 0-12.5 5.6016-12.5 12.5v276.55c0 0.55078 0.25 1.0234 0.35156 1.5742 0.10156 1.0508 0.19922 2.1016 0.60156 3.125 0.42578 1.0508 1.125 1.9492 1.8242 2.8242 0.30078 0.39844 0.42578 0.85156 0.77344 1.1992l0.10156 0.125 106.93 110.35c2.4492 2.5508 5.7266 3.8008 8.9766 3.8008 3.125 0 6.2734-1.1758 8.6992-3.5234 4.9492-4.8242 5.0742-12.699 0.30078-17.676l-103.55-106.88v-271.5c-0.003906-6.875-5.6289-12.477-12.504-12.477z"/>
 </g>
</svg>
