<?xml version="1.0" encoding="UTF-8"?>
<svg width="1200pt" height="1200pt" version="1.1" viewBox="0 0 1200 1200" xmlns="http://www.w3.org/2000/svg">
 <path d="m242.52 579.84c44.16-18.121 22.68-65.641 9.1211-76.922s-71.281-19.199-100.68 46.32c-29.398 65.52 1.0781 174.24 127.8 180.96 118.44 6.3594 262.44-32.758 321.24-125.52 58.801 92.762 202.8 132 321.24 125.52 126.72-6.7188 157.2-115.32 127.8-180.96-29.398-65.637-87.117-57.238-101.04-46.316s-35.039 58.801 9.1211 76.922 58.801-19.199 58.801-19.199c19.199 66.719-29.398 120.96-104.04 80.281-74.645-40.688-82.082-134.16-184.08-164.05-73.562-20.879-109.08 5.8828-127.8 28.199-18.719-22.32-54.238-49.68-127.8-28.199-102 29.883-109.68 123.12-184.2 164.04s-123.24-13.559-104.04-80.281c-0.24219 0 14.52 37.32 58.559 19.199z"/>
</svg>
