<?xml version="1.0" encoding="UTF-8"?>
<svg width="1200pt" height="1200pt" version="1.1" viewBox="0 0 1200 1200" xmlns="http://www.w3.org/2000/svg">
 <g>
  <path d="m115.9 491.06c3.1719 0 6.2109-1.2578 8.4531-3.5 2.2422-2.2422 3.5-5.2812 3.5-8.4531v-152.34l118.24-88.383 118.15 88.43v152.34c0 6.6016 5.3516 11.953 11.953 11.953 6.6016 0 11.953-5.3516 11.953-11.953v-156.49c-0.003907-4.9102-2.3125-9.5352-6.2344-12.492l-126.45-94.547c-2.7109-2.0078-6-3.0938-9.375-3.0938s-6.6641 1.0859-9.375 3.0938l-126.56 94.547c-3.9336 2.9492-6.2578 7.5742-6.2812 12.492v156.45c0 3.1836 1.2695 6.2344 3.5273 8.4766 2.2539 2.2461 5.3125 3.4961 8.4961 3.4766z"/>
  <path d="m718.15 479.11c0 6.6016 5.3516 11.953 11.953 11.953 6.6016 0 11.953-5.3516 11.953-11.953v-156.45c-0.003907-4.9102-2.3125-9.5352-6.2344-12.492l-126.45-94.547c-2.7109-2.0117-6-3.1016-9.375-3.1016s-6.6641 1.0898-9.375 3.1016l-126.45 94.664c-3.9414 2.9453-6.2695 7.5703-6.2812 12.492v156.45c0 6.6016 5.3516 11.953 11.953 11.953 6.6016 0 11.953-5.3516 11.953-11.953v-152.34l118.2-88.5 118.15 88.43z"/>
  <path d="m823.85 491.06c3.1719 0 6.2109-1.2578 8.4531-3.5 2.2422-2.2422 3.5-5.2812 3.5-8.4531v-152.34l118.1-88.383 118.15 88.43v152.34c0 6.6016 5.3516 11.953 11.953 11.953 6.6016 0 11.953-5.3516 11.953-11.953v-156.49c-0.015626-4.9102-2.3203-9.5312-6.2344-12.492l-126.56-94.688c-2.7031-2.0312-5.9922-3.1289-9.375-3.1289-3.3828 0-6.6719 1.0977-9.375 3.1289l-126.45 94.664c-3.9297 2.9531-6.2461 7.5781-6.2578 12.492v156.45c-0.007813 3.207 1.2773 6.2812 3.5586 8.5352 2.2812 2.25 5.375 3.4922 8.582 3.4414z"/>
  <path d="m575.98 748.27-79.5-54.891v-91.406c0-3.1719-1.2578-6.2109-3.5-8.4531-2.2422-2.2422-5.2812-3.5-8.4531-3.5h-75.797c-6.6016 0-11.953 5.3516-11.953 11.953v22.57l-70.992-49.008c-4.0898-2.8359-9.5039-2.8359-13.594 0l-250.22 172.73c-4.3203 2.957-6.207 8.3867-4.6523 13.387 1.5547 5 6.1914 8.4023 11.426 8.3867h62.297v205.62c0 6.6016 5.3516 11.953 11.953 11.953 6.6016 0 11.953-5.3516 11.953-11.953v-217.57c0-3.1719-1.2578-6.2109-3.5-8.4531-2.2422-2.2422-5.2812-3.5-8.4531-3.5h-35.883l211.85-146.13 82.969 57.281c3.6562 2.5273 8.418 2.8164 12.352 0.75 3.9375-2.0664 6.4023-6.1484 6.3984-10.594v-33.375h51.891v85.711c0 3.9219 1.9258 7.5938 5.1562 9.8203l53.109 36.656h-35.906c-6.6016 0-11.953 5.3516-11.953 11.953v217.57c0 6.6016 5.3516 11.953 11.953 11.953 6.6016 0 11.953-5.3516 11.953-11.953v-205.73h62.297c5.2227-0.007812 9.8359-3.4062 11.391-8.3906 1.5586-4.9883-0.30469-10.406-4.5938-13.383z"/>
  <path d="m319.64 781.03h-1.3359c-20.828 0.019531-40.793 8.2969-55.523 23.023-14.727 14.723-23.016 34.688-23.039 55.516v116.09c0 6.6016 5.3516 11.953 11.953 11.953 6.6016 0 11.953-5.3516 11.953-11.953v-116.09c0.019531-14.488 5.7852-28.375 16.031-38.617 10.246-10.242 24.137-16.004 38.625-16.016h1.3359c14.484 0.011719 28.375 5.7734 38.617 16.016 10.242 10.242 16.004 24.133 16.016 38.617v116.09c0 6.6016 5.3516 11.953 11.953 11.953 6.6016 0 11.953-5.3516 11.953-11.953v-116.09c-0.019532-20.824-8.3008-40.789-23.023-55.516-14.727-14.723-34.691-23.004-55.516-23.023z"/>
  <path d="m1138 748.27-79.5-54.891v-91.406c0-3.1719-1.2578-6.2109-3.5-8.4531s-5.2812-3.5-8.4531-3.5h-75.797c-6.5977 0.011719-11.941 5.3555-11.953 11.953v22.57l-71.016-49.031c-4.0781-2.8359-9.4922-2.8359-13.57 0l-250.22 172.73c-4.2891 2.9766-6.1523 8.3945-4.5938 13.383 1.5547 4.9844 6.168 8.3828 11.391 8.3906h62.297v205.62c0 6.6016 5.3516 11.953 11.953 11.953 6.6016 0 11.953-5.3516 11.953-11.953v-217.55c0-3.1719-1.2578-6.2109-3.5-8.4531-2.2422-2.2422-5.2812-3.5-8.4531-3.5h-35.906l211.85-146.13 82.992 57.281c3.6523 2.5469 8.4219 2.8438 12.367 0.77344 3.9414-2.0703 6.4023-6.1641 6.3828-10.617v-33.375h51.891v85.711c0 3.9219 1.9258 7.5938 5.1562 9.8203l53.109 36.656h-35.883c-6.6016 0-11.953 5.3516-11.953 11.953v217.57c0 6.6016 5.3516 11.953 11.953 11.953s11.953-5.3516 11.953-11.953v-205.73h62.32c5.2344 0.015626 9.8711-3.3867 11.426-8.3867 1.5547-5-0.33203-10.43-4.6523-13.387z"/>
  <path d="m881.7 781.03h-1.3359c-20.824 0.019531-40.789 8.3008-55.516 23.023-14.723 14.727-23.004 34.691-23.023 55.516v116.09c0 6.6016 5.3516 11.953 11.953 11.953 6.6016 0 11.953-5.3516 11.953-11.953v-116.09c0.011719-14.484 5.7734-28.375 16.016-38.617 10.242-10.242 24.133-16.004 38.617-16.016h1.3359c14.484 0.011719 28.375 5.7734 38.617 16.016s16.004 24.133 16.016 38.617v116.09c0 6.6016 5.3516 11.953 11.953 11.953s11.953-5.3516 11.953-11.953v-116.09c-0.019531-20.824-8.3008-40.789-23.023-55.516-14.727-14.723-34.691-23.004-55.516-23.023z"/>
 </g>
</svg>
